<svg width="92" height="92" viewBox="0 0 92 92" fill="none" xmlns="http://www.w3.org/2000/svg">
<path d="M45.9831 84.3019C24.8693 84.3019 7.66406 67.0967 7.66406 45.9829C7.66406 24.869 24.8693 7.66379 45.9831 7.66379C63.9164 7.66379 79.7039 20.3857 83.4592 37.9358C83.6891 38.9705 83.0377 40.0051 82.003 40.1967C80.9684 40.4266 79.9338 39.7752 79.7422 38.7405C76.3318 22.9531 62.1538 11.4957 45.9831 11.4957C26.9769 11.4957 11.496 26.9766 11.496 45.9829C11.496 64.9891 26.9769 80.47 45.9831 80.47C62.1538 80.47 76.3318 69.0126 79.7039 53.2635C79.9338 52.2289 80.9684 51.5774 81.9647 51.8074C82.9993 52.0373 83.6508 53.0336 83.4209 54.0682C79.7039 71.58 63.9164 84.3019 45.9831 84.3019Z" fill="white"/>
<path d="M17.8575 42.151C17.7425 42.151 17.5893 42.151 17.4743 42.1126C16.4397 41.921 15.7499 40.8864 15.9798 39.8518C18.8538 25.6354 31.4608 15.3276 45.9837 15.3276C55.7167 15.3276 64.6451 19.8109 70.5079 27.5897C71.1593 28.4327 70.9677 29.6206 70.1247 30.272C69.2817 30.8851 68.0938 30.7319 67.4424 29.8889C62.3076 23.0681 54.4905 19.1595 45.9837 19.1595C33.3001 19.1595 22.2259 28.1645 19.7351 40.6182C19.5435 41.5378 18.7388 42.151 17.8575 42.151Z" fill="white"/>
<path d="M45.9835 76.6381C36.4037 76.6381 27.2455 72.0398 21.4976 64.376C18.7769 60.774 16.861 56.5206 15.9797 52.1139C15.7881 51.0793 16.4395 50.083 17.4741 49.8531C18.5087 49.6615 19.505 50.3129 19.7349 51.3475C20.348 54.4131 21.4976 57.3636 23.1836 60.046C28.8932 53.6084 37.2467 49.8148 45.9835 49.8148C55.6016 49.8148 64.7598 54.4131 70.4694 62.1152C70.9675 62.8049 70.9675 63.7246 70.4694 64.4143C64.7215 72.0781 55.5633 76.6381 45.9835 76.6381ZM25.4828 63.2264C30.5409 69.2425 38.0898 72.8062 45.9835 72.8062C53.8772 72.8062 61.4261 69.2425 66.4842 63.2648C61.4644 57.2104 53.9155 53.6467 45.9835 53.6467C38.0514 53.6467 30.5026 57.2104 25.4828 63.2264Z" fill="white"/>
<path d="M45.9835 45.9829C39.6609 45.9829 34.4878 40.8098 34.4878 34.4872C34.4878 28.1645 39.6609 22.9915 45.9835 22.9915C52.3062 22.9915 57.4792 28.1645 57.4792 34.4872C57.4792 40.8098 52.3062 45.9829 45.9835 45.9829ZM45.9835 26.8234C41.7684 26.8234 38.3197 30.2721 38.3197 34.4872C38.3197 38.7023 41.7684 42.151 45.9835 42.151C50.1986 42.151 53.6473 38.7023 53.6473 34.4872C53.6473 30.2721 50.1986 26.8234 45.9835 26.8234Z" fill="white"/>
<path d="M17.2441 47.8988C18.3022 47.8988 19.16 47.041 19.16 45.9828C19.16 44.9247 18.3022 44.0669 17.2441 44.0669C16.1859 44.0669 15.3281 44.9247 15.3281 45.9828C15.3281 47.041 16.1859 47.8988 17.2441 47.8988Z" fill="white"/>
<path d="M82.3865 44.0669H74.7227V36.4031C74.7227 35.3302 73.8797 34.4872 72.8068 34.4872C71.7338 34.4872 70.8908 35.3302 70.8908 36.4031V44.0669H63.227C62.1541 44.0669 61.311 44.91 61.311 45.9829C61.311 47.0558 62.1541 47.8988 63.227 47.8988H70.8908V55.5627C70.8908 56.6356 71.7338 57.4786 72.8068 57.4786C73.8797 57.4786 74.7227 56.6356 74.7227 55.5627V47.8988H82.3865C83.4595 47.8988 84.3025 47.0558 84.3025 45.9829C84.3025 44.91 83.4595 44.0669 82.3865 44.0669Z" fill="white"/>
</svg>
