<svg width="81" height="81" viewBox="0 0 81 81" fill="none" xmlns="http://www.w3.org/2000/svg">
<path d="M75.735 32.1608L61.8914 16.9475C59.1522 14.2083 54.6898 14.2046 51.9248 16.9696C51.0486 17.8458 50.4521 18.8952 50.1429 20.0145C47.3889 17.9049 43.4162 18.1147 40.8793 20.6516C40.0068 21.5278 39.4103 22.5771 39.0936 23.6927C36.3397 21.5904 32.3669 21.7965 29.8339 24.3333C28.976 25.1912 28.3869 26.2147 28.0666 27.3046L21.5424 20.7803C18.8031 18.041 14.3407 18.0374 11.5757 20.8024C8.83283 23.5417 8.83283 28.004 11.5757 30.7469L36.6415 55.8127L21.7743 58.1469C17.7574 58.7213 14.7273 62.2117 14.7273 66.2728C14.7273 69.3177 17.2051 71.7955 20.25 71.7955H54.9659C60.3746 71.7955 65.4591 69.6894 69.2845 65.8641L75.0759 60.0726C78.8977 56.2545 80.9999 51.1736 80.9999 45.7724C80.9999 40.7282 79.1296 35.8941 75.735 32.1608ZM72.4728 57.4695L66.6814 63.261C63.5519 66.3905 59.3914 68.1136 54.9658 68.1136H20.2499C19.2337 68.1136 18.4089 67.2888 18.4089 66.2726C18.4089 64.034 20.0804 62.1085 22.3226 61.7881L40.787 58.8868C41.4718 58.78 42.0351 58.2978 42.2524 57.6387C42.4659 56.9834 42.293 56.258 41.8032 55.7684L14.1787 28.1438C12.8717 26.8368 12.8717 24.7087 14.1971 23.3796C14.8524 22.7279 15.7104 22.4002 16.5683 22.4002C17.4262 22.4002 18.2839 22.7279 18.9394 23.3832L37.3596 41.8034C38.0776 42.5214 39.2448 42.5214 39.9627 41.8034C40.3198 41.4426 40.5003 40.9714 40.5003 40.5001C40.5003 40.0288 40.32 39.5576 39.9591 39.1967L32.4372 31.6748C31.1302 30.3678 31.1302 28.2432 32.4592 26.9142C33.7626 25.6108 35.8944 25.6108 37.1978 26.9142L44.7233 34.4397C45.4413 35.1577 46.6085 35.1577 47.3264 34.4397C47.6835 34.0789 47.864 33.6077 47.864 33.1364C47.864 32.6651 47.6837 32.1939 47.3228 31.833L43.4826 27.9928C42.1756 26.6858 42.1756 24.5613 43.5047 23.2322C44.8081 21.9289 46.9399 21.9289 48.2432 23.2322L52.1017 27.0907C52.1091 27.0943 52.1053 27.0943 52.1053 27.0943L52.109 27.098C52.1126 27.1016 52.1126 27.1016 52.1126 27.1016C52.1162 27.1052 52.1162 27.1052 52.1162 27.1052H52.1198C52.1235 27.1052 52.1235 27.1088 52.1235 27.1088C52.845 27.7937 53.9865 27.779 54.6896 27.0721C55.4076 26.3541 55.4076 25.1869 54.6896 24.469L54.5314 24.3107C53.8981 23.6775 53.5483 22.8342 53.5483 21.9396C53.5483 21.0449 53.8944 20.2054 54.5498 19.5501C55.8606 18.2468 57.9813 18.2504 59.2295 19.4875L73.0142 34.6382C75.7865 37.6907 77.3182 41.645 77.3182 45.7724C77.3182 50.1906 75.5987 54.3437 72.4728 57.4695Z" fill="white"/>
<path d="M31.6489 18.9725C28.9686 13.0411 23.0483 9.2045 16.5682 9.2045C7.4336 9.2045 0 16.6381 0 25.7727C0 32.2528 3.8364 38.1731 9.76781 40.8572C10.0144 40.9676 10.2723 41.0192 10.5263 41.0192C11.2258 41.0192 11.896 40.6142 12.2052 39.9368C12.6213 39.009 12.2089 37.9191 11.2848 37.4993C6.66784 35.4118 3.68194 30.8094 3.68194 25.7727C3.68194 18.6668 9.46234 12.8863 16.5684 12.8863C21.6051 12.8863 26.2074 15.8722 28.295 20.4892C28.7111 21.417 29.8046 21.8331 30.7286 21.4096C31.6563 20.99 32.0686 19.9003 31.6489 18.9725Z" fill="white"/>
</svg>
