<svg width="90" height="89" viewBox="0 0 90 89" fill="none" xmlns="http://www.w3.org/2000/svg">
<g clip-path="url(#clip0_2_1867)">
<path d="M23.7336 84.5499H14.8334C14.0138 84.5499 13.35 83.8861 13.35 83.0666V17.7985C13.35 16.979 14.0138 16.3151 14.8334 16.3151H37.1877C38.0073 16.3151 38.6711 15.6513 38.6711 14.8318C38.6711 14.0122 38.0073 13.3484 37.1877 13.3484H14.8334C12.3766 13.3484 10.3833 15.3417 10.3833 17.7985V83.0666C10.3833 85.5234 12.3766 87.5166 14.8334 87.5166H23.7336C24.5531 87.5166 25.2169 86.8528 25.2169 86.0333C25.2169 85.2137 24.5531 84.5499 23.7336 84.5499Z" fill="white"/>
<path d="M65.2677 56.366C64.4481 56.366 63.7843 57.0298 63.7843 57.8494V83.0666C63.7843 83.8861 63.1205 84.5499 62.301 84.5499H29.667C28.8474 84.5499 28.1836 85.2137 28.1836 86.0333C28.1836 86.8528 28.8474 87.5166 29.667 87.5166H62.301C64.7578 87.5166 66.7511 85.5234 66.7511 83.0666V57.8494C66.7511 57.0298 66.0873 56.366 65.2677 56.366Z" fill="white"/>
<path d="M29.3406 79.9812L33.6572 78.0676L37.9886 79.9812C38.3669 80.1462 38.7971 80.1462 39.1753 79.9812L43.4919 78.0676L47.8234 79.9812C48.0125 80.0572 48.2127 80.098 48.4167 80.0998C48.6207 80.0998 48.8209 80.059 49.01 79.9812L53.4601 78.0231L58.7409 79.5955C59.5271 79.8291 60.3522 79.3804 60.5859 78.5961C60.6637 78.3328 60.6674 78.0509 60.5951 77.7858L58.7261 70.8436L60.8176 64.4207C60.9215 64.1277 60.9215 63.8088 60.8176 63.5158L58.7854 57.1967L59.2304 55.832C59.4919 55.0421 59.0635 54.1873 58.2737 53.9259C57.4838 53.6644 56.629 54.0927 56.3675 54.8826L55.7742 56.7072C55.6704 57.0057 55.6704 57.3283 55.7742 57.6269L57.8509 63.9757L55.8187 70.369C55.739 70.6397 55.739 70.9289 55.8187 71.1996L56.9905 75.5607L32.2035 50.8627C31.6269 50.2805 30.6868 50.2768 30.1064 50.8534C30.1027 50.8572 30.1009 50.859 30.0972 50.8627L20.485 60.4749L21.3898 57.6714C21.4936 57.3728 21.4936 57.0502 21.3898 56.7517L19.3576 50.4325L21.3898 44.1134C21.4936 43.8149 21.4936 43.4922 21.3898 43.1937L19.3576 36.8746L21.3898 30.5555C21.4714 30.2792 21.4714 29.9862 21.3898 29.7099L20.0844 24.8593L23.3627 25.8235C23.689 25.9422 24.045 25.9422 24.3714 25.8235L28.688 23.91L33.0194 25.8235C33.3976 25.9885 33.8278 25.9885 34.2061 25.8235L37.6475 24.3402C38.4003 24.012 38.747 23.1349 38.4188 22.3821C38.0906 21.6293 37.2136 21.2826 36.4608 21.6108L33.6127 22.8716L29.2813 20.9581C28.903 20.7931 28.4729 20.7931 28.0946 20.9581L23.7335 22.842L18.4527 21.2696C17.6666 21.036 16.8414 21.4847 16.6078 22.269C16.5299 22.5323 16.5262 22.8141 16.5985 23.0793L18.4676 30.0659L16.4205 36.4296C16.3167 36.7281 16.3167 37.0507 16.4205 37.3493L18.4527 43.6684L16.3909 49.9875C16.287 50.2861 16.287 50.6087 16.3909 50.9072L18.4231 57.2115L16.3909 63.5306C16.287 63.8292 16.287 64.1518 16.3909 64.4503L18.4379 70.7991L16.5689 77.7858C16.3556 78.5757 16.8229 79.3915 17.6128 79.6048C17.8779 79.6771 18.1598 79.6734 18.4231 79.5955L23.7335 78.0231L28.1836 79.9812C28.5526 80.1369 28.9716 80.1369 29.3406 79.9812ZM24.4159 75.0861C24.0895 74.9674 23.7335 74.9674 23.4072 75.0861L20.1141 76.0651L21.4195 71.1996C21.5011 70.9234 21.5011 70.6304 21.4195 70.3541L19.8323 65.4293L31.1503 54.0074L52.3773 75.2492L48.4167 76.9996L44.0853 75.0861C43.707 74.921 43.2768 74.921 42.8986 75.0861L38.5672 76.9996L34.2357 75.0861C33.8575 74.921 33.4273 74.921 33.049 75.0861L28.7325 76.9848L24.4159 75.0861Z" fill="white"/>
<path d="M72.6846 83.0665H78.618V89H72.6846V83.0665Z" fill="white"/>
<path d="M0 7.41498H5.93346V13.3484H0V7.41498Z" fill="white"/>
<path d="M85.2044 9.99602L68.8874 0.902992C66.6772 -0.300387 64.0071 -0.300387 61.7969 0.902992L45.3168 9.99602C42.9934 11.3014 41.549 13.7545 41.5342 16.419V36.9784C41.5472 39.6522 42.9971 42.1109 45.3316 43.4162L61.6486 52.4944C63.8588 53.6978 66.5289 53.6978 68.7391 52.4944L72.8183 50.2397C73.5396 49.8299 73.7918 48.9139 73.382 48.1926C72.9722 47.4714 72.0563 47.2192 71.335 47.629L67.2557 49.8837C65.9318 50.6013 64.3372 50.6013 63.0133 49.8837L46.6963 40.8203C45.3353 40.0193 44.4991 38.5582 44.5009 36.9784V16.419C44.5157 14.8318 45.3761 13.3744 46.7556 12.5919L63.0726 3.51371C64.3965 2.79614 65.9911 2.79614 67.3151 3.51371L83.6321 12.5771C85.0746 13.3243 85.9943 14.7966 86.0351 16.419V36.9784C86.024 38.5693 85.1655 40.036 83.7804 40.8203L76.8679 44.6474C76.154 45.0386 75.8889 45.9324 76.2746 46.6499C76.6658 47.3694 77.5651 47.6364 78.2864 47.247C78.2882 47.247 78.2901 47.2451 78.2919 47.2433L85.2193 43.4014C87.5426 42.096 88.987 39.6429 89.0018 36.9784V16.419C89.0018 13.7452 87.5463 11.2847 85.2044 9.99602Z" fill="white"/>
<path d="M57.8513 34.1155C58.6709 34.1155 59.3347 33.4517 59.3347 32.6322V20.7653C59.3347 19.9457 58.6709 19.2819 57.8513 19.2819C57.0318 19.2819 56.368 19.9457 56.368 20.7653V28.1821L50.212 19.9791C49.9413 19.5452 49.4629 19.28 48.9511 19.2819C48.1316 19.2819 47.4678 19.9457 47.4678 20.7653V32.6322C47.4678 33.4517 48.1316 34.1155 48.9511 34.1155C49.7707 34.1155 50.4345 33.4517 50.4345 32.6322V25.2154L56.5905 33.4184C56.8612 33.8522 57.3396 34.1174 57.8513 34.1155Z" fill="white"/>
<path d="M69.7181 22.2486C70.5376 22.2486 71.2015 21.5848 71.2015 20.7653C71.2015 19.9457 70.5376 19.2819 69.7181 19.2819H63.7846C62.9651 19.2819 62.3013 19.9457 62.3013 20.7653V32.6322C62.3013 33.4517 62.9651 34.1155 63.7846 34.1155C64.6042 34.1155 65.268 33.4517 65.268 32.6322V28.1821H69.7181C70.5376 28.1821 71.2015 27.5183 71.2015 26.6987C71.2015 25.8792 70.5376 25.2153 69.7181 25.2153H65.268V22.2486H69.7181Z" fill="white"/>
<path d="M78.6181 34.1155C79.4376 34.1155 80.1014 33.4517 80.1014 32.6322V22.2486H81.5848C82.4043 22.2486 83.0682 21.5848 83.0682 20.7653C83.0682 19.9457 82.4043 19.2819 81.5848 19.2819H75.6513C74.8318 19.2819 74.168 19.9457 74.168 20.7653C74.168 21.5848 74.8318 22.2486 75.6513 22.2486H77.1347V32.6322C77.1347 33.4517 77.7985 34.1155 78.6181 34.1155Z" fill="white"/>
<path d="M25.2173 40.049C25.2173 43.3254 27.8744 45.9825 31.1507 45.9825C34.4271 45.9825 37.0842 43.3254 37.0842 40.049C37.0842 36.7726 34.4271 34.1155 31.1507 34.1155C27.8744 34.1155 25.2173 36.7726 25.2173 40.049ZM34.1175 40.049C34.1175 41.6881 32.7899 43.0157 31.1507 43.0157C29.5116 43.0157 28.184 41.6881 28.184 40.049C28.184 38.4099 29.5116 37.0823 31.1507 37.0823C32.7899 37.0823 34.1175 38.4099 34.1175 40.049Z" fill="white"/>
</g>
<defs>
<clipPath id="clip0_2_1867">
<rect width="89.0019" height="89" fill="white"/>
</clipPath>
</defs>
</svg>
