<svg width="81" height="81" viewBox="0 0 81 81" fill="none" xmlns="http://www.w3.org/2000/svg">
<g clip-path="url(#clip0_2_1842)">
<path d="M55.5187 -3.05176e-05H25.4469C23.5016 0.00193664 21.6366 0.775496 20.261 2.15092C18.8854 3.52634 18.1116 5.39128 18.1094 7.33654V73.6292C18.1116 75.5744 18.8854 77.4394 20.261 78.8148C21.6366 80.1902 23.5016 80.9638 25.4469 80.9657H55.5187C57.4638 80.9636 59.3287 80.1899 60.7041 78.8145C62.0795 77.4391 62.8532 75.5743 62.8554 73.6292V7.33654C62.8532 5.39142 62.0795 3.52659 60.7041 2.1512C59.3287 0.775798 57.4638 0.0021459 55.5187 -3.05176e-05V-3.05176e-05ZM60.3202 73.6292C60.3187 74.9021 59.8123 76.1225 58.9122 77.0226C58.0121 77.9227 56.7917 78.4291 55.5187 78.4306H25.4469C24.1739 78.4291 22.9536 77.9227 22.0534 77.0226C21.1533 76.1225 20.647 74.9021 20.6454 73.6292V7.33654C20.647 6.06358 21.1533 4.8432 22.0534 3.94309C22.9536 3.04297 24.1739 2.5366 25.4469 2.53505H55.5187C56.7917 2.5366 58.0121 3.04297 58.9122 3.94309C59.8123 4.8432 60.3187 6.06358 60.3202 7.33654V73.6292Z" fill="white"/>
<path d="M42.3751 73.099H38.5909C38.2571 73.1027 37.9384 73.2379 37.7037 73.4752C37.469 73.7125 37.3374 74.0328 37.3374 74.3665C37.3374 74.7002 37.469 75.0205 37.7037 75.2578C37.9384 75.4951 38.2571 75.6303 38.5909 75.634H42.3751C42.7088 75.6303 43.0276 75.4951 43.2622 75.2578C43.4969 75.0205 43.6285 74.7002 43.6285 74.3665C43.6285 74.0328 43.4969 73.7125 43.2622 73.4752C43.0276 73.2379 42.7088 73.1027 42.3751 73.099Z" fill="white"/>
<path d="M32.69 8.54793H48.2762C48.6099 8.5442 48.9287 8.40902 49.1634 8.17171C49.3981 7.93441 49.5297 7.61413 49.5297 7.28039C49.5297 6.94665 49.3981 6.62637 49.1634 6.38907C48.9287 6.15176 48.6099 6.01658 48.2762 6.01285H32.69C32.3563 6.01658 32.0375 6.15176 31.8028 6.38907C31.5681 6.62637 31.4365 6.94665 31.4365 7.28039C31.4365 7.61413 31.5681 7.93441 31.8028 8.17171C32.0375 8.40902 32.3563 8.5442 32.69 8.54793Z" fill="white"/>
<path d="M39.3932 32.6041C39.3927 32.18 39.224 31.7735 38.9242 31.4737C38.6243 31.1738 38.2178 31.0052 37.7938 31.0047H32.4417C32.0176 31.0051 31.6111 31.1738 31.3112 31.4736C31.0114 31.7735 30.8427 32.18 30.8423 32.6041V37.9563C30.8428 38.3804 31.0115 38.7869 31.3113 39.0867C31.6111 39.3865 32.0177 39.5551 32.4417 39.5556H37.7938C38.2178 39.5551 38.6243 39.3864 38.9241 39.0866C39.224 38.7868 39.3926 38.3803 39.3932 37.9563V32.6041ZM36.8579 37.0197H33.3775V33.5407H36.8579V37.0197Z" fill="white"/>
<path d="M50.1237 32.6041C50.1232 32.18 49.9545 31.7735 49.6547 31.4736C49.3548 31.1738 48.9483 31.0051 48.5243 31.0047H43.1721C42.7481 31.0052 42.3416 31.1738 42.0418 31.4737C41.7419 31.7735 41.5733 32.18 41.5728 32.6041V37.9563C41.5733 38.3803 41.742 38.7868 42.0418 39.0866C42.3416 39.3864 42.7481 39.5551 43.1721 39.5556H48.5243C48.9483 39.5551 49.3548 39.3865 49.6546 39.0867C49.9545 38.7869 50.1232 38.3804 50.1237 37.9563V32.6041ZM47.5884 37.0197H44.108V33.5407H47.5884V37.0197Z" fill="white"/>
<path d="M45.6043 47.4251H44.108V46.8526C44.108 46.5164 43.9744 46.194 43.7367 45.9563C43.499 45.7185 43.1766 45.585 42.8404 45.585C42.5042 45.585 42.1818 45.7185 41.944 45.9563C41.7063 46.194 41.5728 46.5164 41.5728 46.8526V48.2749C41.5733 48.7217 41.751 49.1501 42.067 49.4661C42.3829 49.7821 42.8113 49.9598 43.2582 49.9603H45.6043C45.9405 49.9603 46.2629 49.8268 46.5006 49.589C46.7383 49.3513 46.8719 49.0289 46.8719 48.6927C46.8719 48.3565 46.7383 48.0341 46.5006 47.7963C46.2629 47.5586 45.9405 47.4251 45.6043 47.4251Z" fill="white"/>
<path d="M37.7938 41.4102H32.4417C32.0176 41.4106 31.6111 41.5793 31.3112 41.8791C31.0114 42.179 30.8427 42.5855 30.8423 43.0096V48.3618C30.8428 48.7859 31.0115 49.1924 31.3113 49.4922C31.6111 49.792 32.0177 49.9606 32.4417 49.9611H37.7938C38.2178 49.9606 38.6243 49.7919 38.9241 49.4921C39.224 49.1923 39.3926 48.7858 39.3932 48.3618V43.0096C39.3927 42.5855 39.224 42.179 38.9242 41.8792C38.6243 41.5793 38.2178 41.4107 37.7938 41.4102ZM36.8579 47.425H33.3775V43.946H36.8579V47.425Z" fill="white"/>
<path d="M48.8562 46.9532C49.1924 46.9532 49.5148 46.8196 49.7525 46.5819C49.9903 46.3442 50.1238 46.0218 50.1238 45.6856V43.0956C50.1233 42.6488 49.9456 42.2204 49.6296 41.9044C49.3136 41.5884 48.8852 41.4107 48.4384 41.4102H42.8404C42.6727 41.4083 42.5064 41.4397 42.3509 41.5026C42.1955 41.5655 42.0541 41.6585 41.9349 41.7764C41.8157 41.8943 41.721 42.0347 41.6564 42.1894C41.5919 42.3441 41.5586 42.5101 41.5586 42.6777C41.5586 42.8454 41.5919 43.0114 41.6564 43.1661C41.721 43.3208 41.8157 43.4612 41.9349 43.5791C42.0541 43.697 42.1955 43.79 42.3509 43.8529C42.5064 43.9158 42.6727 43.9472 42.8404 43.9453H47.5884V45.6848C47.5883 45.8513 47.6211 46.0162 47.6847 46.1701C47.7484 46.324 47.8418 46.4639 47.9595 46.5816C48.0772 46.6994 48.217 46.7929 48.3709 46.8566C48.5247 46.9204 48.6896 46.9532 48.8562 46.9532Z" fill="white"/>
<path d="M32.1098 52.3847H28.5811V48.6935C28.5811 48.3573 28.4476 48.0348 28.2099 47.7971C27.9721 47.5594 27.6497 47.4258 27.3135 47.4258C26.9773 47.4258 26.6549 47.5594 26.4172 47.7971C26.1794 48.0348 26.0459 48.3573 26.0459 48.6935V53.2345C26.0462 53.6815 26.2238 54.1101 26.5398 54.4262C26.8558 54.7424 27.2843 54.9202 27.7313 54.9207H32.1098C32.446 54.9207 32.7684 54.7872 33.0061 54.5494C33.2439 54.3117 33.3774 53.9893 33.3774 53.6531C33.3774 53.3169 33.2439 52.9945 33.0061 52.7567C32.7684 52.519 32.446 52.3855 32.1098 52.3855V52.3847Z" fill="white"/>
<path d="M53.6523 47.425C53.3161 47.425 52.9937 47.5586 52.7559 47.7963C52.5182 48.034 52.3846 48.3565 52.3846 48.6927V52.3839H48.856C48.5198 52.3839 48.1974 52.5174 47.9597 52.7551C47.7219 52.9929 47.5884 53.3153 47.5884 53.6515C47.5884 53.9877 47.7219 54.3101 47.9597 54.5478C48.1974 54.7856 48.5198 54.9191 48.856 54.9191H53.2345C53.6813 54.9188 54.1098 54.7413 54.4259 54.4255C54.742 54.1096 54.92 53.6813 54.9207 53.2345V48.6934C54.9208 48.5269 54.888 48.3619 54.8243 48.2079C54.7606 48.054 54.6672 47.9142 54.5494 47.7964C54.4316 47.6786 54.2917 47.5851 54.1378 47.5214C53.9838 47.4577 53.8189 47.425 53.6523 47.425Z" fill="white"/>
<path d="M53.2345 26.0458H48.856C48.6883 26.044 48.522 26.0754 48.3666 26.1382C48.2111 26.2011 48.0697 26.2942 47.9505 26.412C47.8313 26.5299 47.7367 26.6703 47.6721 26.825C47.6075 26.9797 47.5742 27.1457 47.5742 27.3134C47.5742 27.481 47.6075 27.647 47.6721 27.8017C47.7367 27.9565 47.8313 28.0968 47.9505 28.2147C48.0697 28.3326 48.2111 28.4257 48.3666 28.4885C48.522 28.5514 48.6883 28.5828 48.856 28.5809H52.3846V32.2723C52.3846 32.6085 52.5182 32.9309 52.7559 33.1686C52.9937 33.4064 53.3161 33.5399 53.6523 33.5399C53.9885 33.5399 54.3109 33.4064 54.5486 33.1686C54.7863 32.9309 54.9199 32.6085 54.9199 32.2723V27.7313C54.9194 27.2844 54.7417 26.856 54.4257 26.54C54.1097 26.2241 53.6813 26.0463 53.2345 26.0458Z" fill="white"/>
<path d="M27.3135 33.5407C27.6497 33.5407 27.9721 33.4072 28.2099 33.1694C28.4476 32.9317 28.5811 32.6093 28.5811 32.2731V28.5809H32.1098C32.2774 28.5828 32.4438 28.5514 32.5992 28.4885C32.7546 28.4257 32.8961 28.3326 33.0153 28.2147C33.1345 28.0968 33.2291 27.9565 33.2937 27.8017C33.3583 27.647 33.3916 27.481 33.3916 27.3134C33.3916 27.1457 33.3583 26.9797 33.2937 26.825C33.2291 26.6703 33.1345 26.5299 33.0153 26.412C32.8961 26.2942 32.7546 26.2011 32.5992 26.1382C32.4438 26.0754 32.2774 26.044 32.1098 26.0458H27.7313C27.2845 26.0463 26.8561 26.2241 26.5401 26.54C26.2241 26.856 26.0464 27.2844 26.0459 27.7313V32.2723C26.0458 32.4388 26.0785 32.6037 26.1422 32.7576C26.2059 32.9115 26.2992 33.0513 26.4169 33.1691C26.5347 33.2869 26.6744 33.3803 26.8283 33.4441C26.9821 33.5079 27.147 33.5407 27.3135 33.5407Z" fill="white"/>
</g>
<defs>
<clipPath id="clip0_2_1842">
<rect width="80.9658" height="80.9658" fill="white"/>
</clipPath>
</defs>
</svg>
